<svg width="175" height="71" viewBox="0 0 175 71" fill="none" xmlns="http://www.w3.org/2000/svg">
<path d="M169.459 34.7775C171.218 34.0242 173.133 34.213 175 34.4405C174.346 34.1697 173.715 33.8635 173.096 33.5635C172.825 33.4317 172.553 33.3001 172.281 33.1721C169.869 32.0376 167.502 31.0931 165.068 31.9665C162.214 32.9901 159.694 35.4406 157.818 37.461C157.75 37.5348 157.695 37.6217 157.639 37.7062C157.528 37.8716 157.39 38.0772 157.195 38.2622C153.668 41.6115 146.629 45.1886 141.699 41.3211C140.095 40.0641 138.946 38.3442 137.994 36.8306C135.117 32.2542 131.712 28.262 126.337 30.0088C126.21 30.0505 126.078 30.1162 125.926 30.1922C125.749 30.2804 125.573 30.3665 125.384 30.4354C125.308 30.4632 125.209 30.5046 125.097 30.5504C124.412 30.8335 123.889 31.0272 123.442 30.9612C123.141 30.9166 122.885 30.7095 122.77 30.4177C122.405 29.4901 123.2 28.754 123.627 28.3584C123.696 28.2946 123.759 28.2385 123.801 28.1914C124.064 27.8963 124.351 27.6648 124.63 27.4406C124.953 27.1807 125.258 26.9349 125.435 26.65C127.314 23.6093 127.361 20.609 125.57 17.9729C122.813 13.9155 116.15 11.5255 111.018 12.7571C108.523 13.3551 105.397 15.0353 104.682 19.641L104.156 23.0268C104.082 23.5091 103.65 23.8406 103.18 23.7635C102.715 23.6889 102.395 23.2388 102.464 22.7555C102.878 19.856 103.348 16.5696 102.408 13.6788C101.809 11.8382 100.587 10.0151 98.6722 8.10559C91.7869 1.23859 81.3587 -1.59528 72.1114 0.885514C67.7625 2.05235 64.2021 4.45306 60.9068 8.44096C58.7857 11.0078 56.2316 14.4702 55.3044 18.4963C53.9566 24.3452 56.3046 30.976 61.1477 34.996C65.6799 38.7581 72.0801 40.1576 78.267 38.7384C80.0285 38.335 81.6191 37.7258 83.0076 36.9461C83.7828 36.2544 84.6457 35.6185 85.5994 35.06C85.793 34.8772 85.9861 34.6939 86.1639 34.5007C90.1068 30.2199 89.5291 23.402 86.7332 19.5405C84.2629 16.1296 80.6038 15.3856 76.6938 17.4972C75.476 18.1546 74.0492 19.5642 73.7941 21.104C73.6615 21.9082 73.8805 22.6149 74.4655 23.2647C74.7883 23.6232 74.7694 24.1855 74.4237 24.5203C74.0786 24.8546 73.5372 24.8358 73.2133 24.477C72.2658 23.4241 71.8828 22.154 72.1059 20.8038C72.461 18.6556 74.2688 16.8039 75.9032 15.9215C80.5631 13.4061 85.1237 14.3596 88.1025 18.4736C90.8811 22.3109 91.7335 28.697 88.9733 33.5589C91.6292 32.7065 94.7733 32.388 98.4261 32.874C102.204 33.3767 107.244 35.7112 109.015 40.6381C110.915 45.9236 107.842 51.4652 103.984 53.9953C101.441 55.6632 97.8634 56.0558 95.2834 54.9527C93.3172 54.1114 92.0269 52.5272 91.5523 50.3711C90.8147 47.0188 92.7333 43.5687 95.7415 42.8367C97.4016 42.4329 98.9596 42.68 99.9097 43.497C100.415 43.9318 101.005 44.7459 100.945 46.1544C100.908 47.0262 100.424 47.8892 99.6827 48.4077C99.0003 48.8847 98.2007 49.0098 97.4875 48.7485C97.0415 48.5853 96.8072 48.0778 96.965 47.6155C97.1224 47.1526 97.6126 46.9109 98.0575 47.0733C98.337 47.1757 98.6173 47.0106 98.725 46.9349C99.021 46.7281 99.2207 46.3906 99.2346 46.0751C99.258 45.5229 99.1214 45.1267 98.8164 44.8647C98.2924 44.4138 97.2406 44.2961 96.1331 44.5664C93.8045 45.1325 92.7485 47.8206 93.2224 49.9758C93.5725 51.5676 94.4859 52.6895 95.9369 53.3101C98.0342 54.2081 100.968 53.8719 103.069 52.4939C106.357 50.3373 108.995 45.667 107.41 41.2587C105.906 37.0739 101.513 35.0755 98.2088 34.6361C93.3656 33.9921 89.511 34.8707 86.5879 36.5369C85.8319 37.2259 84.9716 37.838 84.0354 38.3826C82.3632 39.896 81.1638 41.6946 80.422 43.5088C78.1207 49.1359 79.5266 56.8507 83.3567 62.3005C83.4313 62.3258 83.5046 62.358 83.5726 62.4062C83.8014 62.5672 83.9277 62.823 83.9435 63.0887C84.8836 64.2945 85.948 65.3698 87.1248 66.2568C92.2208 70.0968 100.62 70.9893 105.852 68.2456C109.516 66.323 112.568 62.8228 114.52 58.3295C113.579 58.0287 112.726 57.6075 111.989 57.0719C110.162 55.7427 109.022 53.6273 109.015 51.5511C109.013 51.0607 109.396 50.6616 109.869 50.6599C109.87 50.6599 109.87 50.6599 109.872 50.6599C110.343 50.6599 110.726 51.0558 110.728 51.5453C110.733 53.0535 111.593 54.614 112.973 55.6177C114.191 56.5037 115.834 57.0117 117.725 57.0872C121.787 57.2531 125.548 55.4766 129.584 51.5102C129.927 51.1726 130.469 51.1876 130.794 51.544C131.119 51.9 131.105 52.4623 130.761 52.7999C126.607 56.8823 122.496 58.8735 118.214 58.8735C118.029 58.8735 117.844 58.8697 117.659 58.8626C117.191 58.8438 116.736 58.7965 116.293 58.7311C115.673 61.663 118.533 64.5091 120.445 65.7948C123.595 67.9099 127.956 68.2647 131.827 66.7194C135.403 65.2927 138.5 62.0008 140.564 57.4465C139.261 55.9247 138.721 53.8861 138.923 52.1226C139.183 49.8472 140.766 47.3855 144.424 47.2994C144.87 47.2891 146.44 47.3594 147.655 48.7112C148.654 49.823 149.069 51.4135 148.887 53.4374C148.843 53.9259 148.416 54.2849 147.956 54.2394C147.484 54.1939 147.138 53.7613 147.182 53.2726C147.317 51.775 147.054 50.6479 146.402 49.9227C145.822 49.2781 145.011 49.0651 144.463 49.0754C141.326 49.1495 140.733 51.3778 140.624 52.3321C140.382 54.4427 141.648 57.0428 144.185 57.7413C147.488 58.6501 152.741 57.4386 154.999 54.2454C155.529 53.4957 155.439 52.8977 155.303 51.9921C155.193 51.2603 155.068 50.4302 155.312 49.4593C155.906 47.0828 157.976 47.2011 159.209 47.2706C159.612 47.294 159.984 47.2931 160.417 47.3196C160.721 47.3378 161.066 47.3593 161.254 47.301C162.957 46.7742 163.382 45.0665 163.836 42.5206C163.955 41.8529 164.067 41.2222 164.226 40.6253C164.946 37.9222 166.707 35.955 169.459 34.7775Z" fill="url(#paint0_linear_226_5)" fill-opacity="0.2"/>
<path d="M78.8445 42.8144C79.2344 41.8612 79.7371 40.9121 80.3502 39.9969C79.7934 40.1738 79.226 40.3377 78.6355 40.4729C71.9458 42.0067 65.0084 40.4764 60.0764 36.3825C57.3763 34.1415 55.3828 31.1578 54.2601 27.9166C49.9364 28.0011 46.1152 29.2309 43.4729 31.4202C40.1083 34.2072 37.0822 39.6523 37.8064 44.667C38.1408 46.9838 39.3465 49.1499 41.1135 50.6099C43.6261 52.6853 48.4523 53.2577 51.653 51.8604C53.6499 50.9886 54.7629 49.5169 54.962 47.4856C55.2218 44.8319 53.3901 43.0305 51.5779 42.4799C50.0094 42.0032 47.9327 42.3194 46.8032 44.6327C46.5896 45.071 46.0727 45.2449 45.6524 45.0239C45.2302 44.8022 45.0613 44.2676 45.2754 43.8298C46.5975 41.1235 49.2595 39.9234 52.0599 40.7747C54.5302 41.5253 57.0256 44.0015 56.6663 47.6646C56.407 50.3151 54.8624 52.3864 52.3181 53.4972C50.9207 54.1074 49.2852 54.3995 47.6285 54.3995C44.8115 54.3995 41.9315 53.5563 40.0468 51.999C37.9451 50.2623 36.5109 47.6856 36.1129 44.9296C35.9658 43.9135 35.9582 42.8837 36.0575 41.8596C32.5838 39.3172 27.5459 39.3981 24.0551 42.0612C22.5781 43.1885 21.5363 44.7844 20.4333 46.4744C19.0314 48.6222 17.5822 50.8434 15.1408 52.1129C13.947 52.7338 12.6238 52.8856 11.3709 52.9877C9.30489 53.1558 7.98178 52.5447 6.57697 51.8982C6.0327 51.6479 5.47004 51.3888 4.8333 51.1618C4.5919 51.076 4.35864 50.9793 4.12748 50.8834C3.58032 50.6562 3.1075 50.4601 2.58398 50.4434C1.63045 50.4143 0.907295 50.4949 0.167327 50.7172C0.111639 50.7341 0.0559507 50.7505 0 50.7668C2.40325 51.6522 3.60606 54.4229 4.27852 55.9717C5.88612 59.6774 7.63373 62.0181 11.3724 62.2377C14.7889 62.4374 17.4283 60.6538 20.2179 58.7639C21.7112 57.7526 23.2553 56.7067 24.9548 55.957C25.4116 55.7554 25.8613 55.6025 26.3084 55.4707C26.4221 55.3612 26.5645 55.2805 26.7282 55.2478C27.3901 55.1165 28.031 55.059 28.6541 55.059C32.5153 54.8468 36.0488 56.8375 39.492 58.7857C42.1375 60.2824 44.8725 61.8299 47.6411 62.25C51.9112 62.897 56.1073 61.7359 58.8754 59.1445C59.2261 58.8151 59.7675 58.8437 60.0848 59.2088C60.4021 59.5727 60.3742 60.1342 60.0228 60.463C57.4456 62.8763 53.8059 64.2019 49.9511 64.2019C49.1058 64.2019 48.2503 64.1382 47.3934 64.0083C44.3461 63.5459 41.4968 61.9437 38.7407 60.3846C39.2874 60.93 39.8054 61.4716 40.295 61.9841C41.0649 62.7899 41.7923 63.5514 42.4563 64.1461C42.8393 64.4894 43.2081 64.825 43.5677 65.1522C46.4446 67.7711 48.5227 69.6634 52.3384 70.3854C54.7852 70.8483 57.5042 70.5576 59.7953 69.5861C62.172 68.5786 63.5214 66.9347 65.0843 65.0318C65.3599 64.6961 65.641 64.3537 65.9341 64.0064C65.9346 64.0055 65.9352 64.0044 65.9362 64.0036C66.2467 63.6353 66.7889 63.5977 67.1445 63.9208C67.3804 64.1349 67.4758 64.4534 67.4222 64.7512C67.7266 65.1857 68.7944 66.1025 69.8746 66.8429C74.2587 69.8512 79.0639 67.202 81.9221 63.3027C77.7392 57.3671 76.2847 49.0736 78.8445 42.8144Z" fill="url(#paint1_linear_226_5)" fill-opacity="0.2"/>
<defs>
<linearGradient id="paint0_linear_226_5" x1="54.9281" y1="34.9187" x2="175" y2="34.9187" gradientUnits="userSpaceOnUse">
<stop stop-color="#DFB571"/>
<stop offset="1" stop-color="#E8AC4D"/>
</linearGradient>
<linearGradient id="paint1_linear_226_5" x1="0" y1="49.2587" x2="81.9221" y2="49.2587" gradientUnits="userSpaceOnUse">
<stop stop-color="#DFB571"/>
<stop offset="1" stop-color="#E8AC4D"/>
</linearGradient>
</defs>
</svg>
