<svg width="74" height="76" viewBox="0 0 74 76" fill="none" xmlns="http://www.w3.org/2000/svg">
<path d="M74 22.9053V23.9816H26.962L25.5226 22.9053H74Z" fill="url(#paint0_linear_209_199)"/>
<path d="M22.4502 18.3349C22.9558 18.5724 23.5095 18.7589 24.0534 18.7057C24.5994 18.6653 25.0524 18.2775 25.1482 17.7684C25.2616 17.2685 25.1163 16.7296 24.8312 16.3112C24.5476 15.8872 24.1051 15.5795 23.6301 15.4235C22.6721 15.1009 21.5646 15.5065 21.0122 16.2964C20.4528 17.0848 20.3911 18.1966 20.6364 19.1687C21.164 21.1718 22.7657 22.7289 24.5207 23.9683C26.2883 25.2049 28.2645 26.1303 30.3271 26.655C32.3862 27.1931 34.5517 27.2711 36.6292 26.996C38.7124 26.7415 40.6602 25.9246 42.442 24.7979C45.9894 22.4616 48.9547 19.0858 51.7874 15.6625C52.4766 14.8159 53.2445 13.8941 54.0493 13.0503C54.8569 12.2001 55.7156 11.3904 56.6359 10.6416C58.4731 9.15049 60.5655 7.87064 62.9508 7.18498C64.142 6.8574 65.4027 6.67661 66.6832 6.76311C67.9581 6.84466 69.2564 7.18854 70.4001 7.86853C71.5388 8.56056 72.4663 9.49934 73.1385 10.6572C73.7745 11.8236 74.0801 13.1737 73.9801 14.4762C73.9085 15.7837 73.4498 17.0288 72.7726 18.1037C72.0607 19.1595 71.1942 20.0501 70.1555 20.7287C68.1127 22.1049 65.5126 22.6417 63.1401 22.0695C61.8688 21.805 60.7619 20.991 60.1259 19.8565C59.5126 18.6944 59.5679 17.2132 60.3755 16.1836C61.1845 15.1661 62.4537 14.7563 63.6237 14.7924C64.2143 14.8215 64.8042 14.9704 65.3048 15.2789C65.8068 15.5823 66.1933 16.0595 66.3606 16.5998C66.1252 16.0836 65.6998 15.6859 65.2056 15.4646C64.7107 15.237 64.1583 15.1775 63.6279 15.2087C62.5693 15.2789 61.5163 15.7915 60.998 16.6275C60.4825 17.4408 60.5088 18.5682 61.0044 19.3545C61.5199 20.1487 62.4296 20.7528 63.3819 20.8591C65.4353 21.2066 67.5788 20.6138 69.1926 19.3673C70.0016 18.7589 70.7043 17.9747 71.2084 17.138C71.6863 16.2871 71.9849 15.3349 71.9877 14.3869C72.0203 13.4374 71.7431 12.5199 71.2808 11.7258C70.8036 10.948 70.0775 10.2566 69.2805 9.80423C67.6511 8.89097 65.5466 8.90232 63.623 9.50218C61.6731 10.0836 59.8416 11.1975 58.2051 12.5547C57.3847 13.234 56.6076 13.9785 55.8723 14.7669C55.1263 15.5575 54.4719 16.3836 53.7245 17.2699C52.2632 19.0113 50.76 20.7322 49.1284 22.3659C47.4955 23.9932 45.7285 25.5538 43.6843 26.7968C41.6422 28.0206 39.3023 28.9232 36.8972 29.1501C34.507 29.4139 32.0927 29.1679 29.8187 28.4772C27.5419 27.7958 25.4233 26.6649 23.5982 25.1893C22.6835 24.4555 21.8305 23.6415 21.0924 22.6828C20.3628 21.7284 19.8097 20.5989 19.597 19.3793C19.3998 18.1704 19.5615 16.8289 20.384 15.8021C21.203 14.7974 22.6565 14.4032 23.8272 14.8889C24.983 15.3221 25.8289 16.6374 25.4431 17.8527C25.3488 18.147 25.1638 18.415 24.9128 18.5965C24.6596 18.7738 24.3554 18.8568 24.0626 18.8589C23.4684 18.8596 22.9331 18.6157 22.4502 18.3349Z" fill="url(#paint1_linear_209_199)"/>
<path d="M46.6169 20.1933C46.9367 15.2207 47.1289 13.5495 47.8351 11.3457C48.5413 9.14268 49.0051 8.31805 49.4879 8.39392C49.9708 8.46979 50.1828 9.59718 49.4376 12.6327C48.6923 15.6681 46.6169 20.1933 46.6169 20.1933Z" fill="url(#paint2_linear_209_199)"/>
<path d="M50.4197 15.5255C51.1011 10.9628 52.9042 4.18918 58.0867 0.539666C60.4861 -1.03373 62.4254 1.12604 59.9352 3.26384C54.635 7.81244 50.4197 15.5255 50.4197 15.5255Z" fill="url(#paint3_linear_209_199)"/>
<path d="M68.3998 3.8722C69.8519 3.54036 70.8758 2.82493 70.8254 1.96698C70.7751 1.10902 70.1525 0.621185 68.8238 0.72258C67.9346 0.78994 66.0989 1.44581 64.451 2.42147C62.3182 3.68359 58.6509 6.26739 56.7748 8.78028C56.7748 8.78028 60.486 5.681 68.3998 3.8722Z" fill="url(#paint4_linear_209_199)"/>
<path d="M34.3609 39.5674C31.7481 39.5674 29.6223 37.4417 29.6223 34.8288C29.6223 32.216 31.7481 30.0902 34.3609 30.0902C36.9738 30.0902 39.0996 32.216 39.0996 34.8288C39.0996 37.4417 36.9738 39.5674 34.3609 39.5674ZM34.3609 31.3544C32.4444 31.3544 30.8859 32.9137 30.8859 34.8295C30.8859 36.7454 32.4451 38.3046 34.3609 38.3046C36.2775 38.3046 37.836 36.7454 37.836 34.8295C37.836 32.9137 36.2775 31.3544 34.3609 31.3544Z" fill="url(#paint5_linear_209_199)"/>
<path d="M40.8891 32.513C40.1652 32.513 39.5759 31.9238 39.5759 31.1991C39.5759 30.4752 40.1652 29.8853 40.8891 29.8853C41.613 29.8853 42.203 30.4745 42.203 31.1991C42.203 31.9238 41.6138 32.513 40.8891 32.513ZM40.8891 30.3915C40.4438 30.3915 40.0815 30.7539 40.0815 31.1998C40.0815 31.6458 40.4438 32.0082 40.8891 32.0082C41.3344 32.0082 41.6974 31.6458 41.6974 31.1998C41.6974 30.7539 41.3351 30.3915 40.8891 30.3915Z" fill="url(#paint6_linear_209_199)"/>
<path d="M31.1021 43.3489C30.3413 43.3489 29.7223 42.7299 29.7223 41.9691C29.7223 41.209 30.3413 40.59 31.1021 40.59C31.8629 40.59 32.4819 41.209 32.4819 41.9691C32.4819 42.7299 31.8629 43.3489 31.1021 43.3489ZM31.1021 41.0948C30.62 41.0948 30.2278 41.4869 30.2278 41.9683C30.2278 42.4505 30.62 42.8426 31.1021 42.8426C31.5843 42.8426 31.9764 42.4498 31.9764 41.9683C31.9764 41.4869 31.5836 41.0948 31.1021 41.0948Z" fill="url(#paint7_linear_209_199)"/>
<path d="M22.9053 75.7009H23.9823V28.6622L22.9053 27.2235V75.7009Z" fill="url(#paint8_linear_209_199)"/>
<path d="M18.3349 24.1505C18.6157 24.6341 18.8604 25.1694 18.8589 25.7622C18.8568 26.055 18.7738 26.3592 18.5966 26.6123C18.4158 26.8634 18.147 27.0491 17.8528 27.1427C16.6375 27.5284 15.3229 26.6825 14.8889 25.5268C14.4039 24.3561 14.7982 22.9026 15.8022 22.0836C16.8289 21.2611 18.1704 21.0994 19.3794 21.2966C20.5982 21.5093 21.7285 22.063 22.6829 22.792C23.6415 23.5301 24.4555 24.3838 25.1894 25.2978C26.6649 27.1236 27.7959 29.2422 28.4773 31.5183C29.1679 33.793 29.4139 36.2073 29.1502 38.5968C28.9233 41.0019 28.0206 43.3418 26.7968 45.3839C25.5538 47.4281 23.9932 49.1951 22.3659 50.828C20.7323 52.4596 19.0114 53.9635 17.2699 55.4241C16.3836 56.1715 15.5576 56.8259 14.767 57.5718C13.9785 58.3078 13.234 59.0843 12.5547 59.9054C11.1976 61.5419 10.0829 63.3733 9.50222 65.3233C8.90165 67.2469 8.89102 69.3514 9.80429 70.9808C10.2574 71.7785 10.948 72.5039 11.7258 72.981C12.5207 73.4426 13.4375 73.7206 14.3869 73.688C15.3349 73.6851 16.2872 73.3866 17.1381 72.9087C17.974 72.4046 18.759 71.7019 19.3673 70.8922C20.6138 69.2784 21.2066 67.1349 20.8592 65.0822C20.7528 64.1306 20.1487 63.2202 19.3546 62.7047C18.5682 62.2091 17.4408 62.1828 16.6275 62.6983C15.7916 63.2167 15.2782 64.2696 15.2087 65.3282C15.1768 65.8593 15.2371 66.4117 15.4647 66.9059C15.6859 67.4001 16.0837 67.8255 16.5999 68.0609C16.0596 67.8936 15.5824 67.5064 15.2789 67.0051C14.9705 66.5045 14.8216 65.9146 14.7925 65.324C14.7563 64.154 15.1662 62.8848 16.1837 62.0758C17.2132 61.2689 18.6944 61.2128 19.8566 61.8262C20.9911 62.4622 21.8051 63.569 22.0695 64.8404C22.6417 67.2136 22.105 69.8137 20.7287 71.8558C20.0501 72.8952 19.1596 73.7617 18.1038 74.4736C17.0289 75.1508 15.7837 75.6088 14.4762 75.6804C13.1737 75.7811 11.8237 75.4748 10.658 74.8388C9.49939 74.1666 8.56131 73.2391 7.86927 72.1004C7.18929 70.9567 6.84539 69.6584 6.76385 68.3835C6.67734 67.103 6.85816 65.8423 7.18503 64.6511C7.87069 62.2658 9.15124 60.1727 10.6424 58.3355C11.3911 57.4151 12.2009 56.5565 13.051 55.7489C13.8948 54.9441 14.8166 54.1762 15.6632 53.487C19.0865 50.655 22.4631 47.689 24.7987 44.1416C25.9254 42.3598 26.7429 40.412 26.9968 38.3288C27.2719 36.2512 27.1939 34.0858 26.6557 32.0267C26.131 29.964 25.205 27.9886 23.9691 26.2209C22.7297 24.4653 21.1726 22.8643 19.1695 22.3367C18.1967 22.0921 17.0856 22.1531 16.2971 22.7125C15.5072 23.2656 15.1016 24.3724 15.4243 25.3304C15.581 25.8054 15.888 26.2479 16.312 26.5315C16.7303 26.8165 17.2692 26.9626 17.7691 26.8485C18.2782 26.752 18.6661 26.2989 18.7065 25.753C18.7582 25.2098 18.5725 24.6561 18.3349 24.1505Z" fill="url(#paint9_linear_209_199)"/>
<path d="M20.1939 48.3173C15.2213 48.637 13.5501 48.8292 11.3463 49.5354C9.1433 50.2417 8.31866 50.7054 8.39453 51.1882C8.4704 51.6711 9.59779 51.8831 12.6333 51.1379C15.6687 50.3934 20.1939 48.3173 20.1939 48.3173Z" fill="url(#paint10_linear_209_199)"/>
<path d="M15.5256 52.1199C10.9628 52.8013 4.18917 54.6044 0.539663 59.7869C-1.03373 62.1863 1.12606 64.1256 3.26386 61.6354C7.81316 56.3352 15.5256 52.1199 15.5256 52.1199Z" fill="url(#paint11_linear_209_199)"/>
<path d="M3.87221 70.1002C3.54037 71.5523 2.82492 72.5762 1.96697 72.5259C1.10901 72.4755 0.621185 71.853 0.72258 70.5242C0.78994 69.635 1.44581 67.7993 2.42147 66.1515C3.68359 64.0186 6.2674 60.3514 8.78029 58.4752C8.78029 58.4752 5.68101 62.1864 3.87221 70.1002Z" fill="url(#paint12_linear_209_199)"/>
<defs>
<linearGradient id="paint0_linear_209_199" x1="-58.7134" y1="117.828" x2="200.465" y2="-107.683" gradientUnits="userSpaceOnUse">
<stop stop-color="#FFE4A2"/>
<stop offset="0.3732" stop-color="#D8AB66"/>
<stop offset="0.6246" stop-color="#FFE4A2"/>
<stop offset="1" stop-color="#D8AB66"/>
</linearGradient>
<linearGradient id="paint1_linear_209_199" x1="-63.2005" y1="112.67" x2="195.978" y2="-112.84" gradientUnits="userSpaceOnUse">
<stop stop-color="#FFE4A2"/>
<stop offset="0.3732" stop-color="#D8AB66"/>
<stop offset="0.6246" stop-color="#FFE4A2"/>
<stop offset="1" stop-color="#D8AB66"/>
</linearGradient>
<linearGradient id="paint2_linear_209_199" x1="-64.0295" y1="111.718" x2="195.149" y2="-113.793" gradientUnits="userSpaceOnUse">
<stop stop-color="#FFE4A2"/>
<stop offset="0.3732" stop-color="#D8AB66"/>
<stop offset="0.6246" stop-color="#FFE4A2"/>
<stop offset="1" stop-color="#D8AB66"/>
</linearGradient>
<linearGradient id="paint3_linear_209_199" x1="-64.4331" y1="111.254" x2="194.746" y2="-114.257" gradientUnits="userSpaceOnUse">
<stop stop-color="#FFE4A2"/>
<stop offset="0.3732" stop-color="#D8AB66"/>
<stop offset="0.6246" stop-color="#FFE4A2"/>
<stop offset="1" stop-color="#D8AB66"/>
</linearGradient>
<linearGradient id="paint4_linear_209_199" x1="-61.5756" y1="114.537" x2="197.602" y2="-110.973" gradientUnits="userSpaceOnUse">
<stop stop-color="#FFE4A2"/>
<stop offset="0.3732" stop-color="#D8AB66"/>
<stop offset="0.6246" stop-color="#FFE4A2"/>
<stop offset="1" stop-color="#D8AB66"/>
</linearGradient>
<linearGradient id="paint5_linear_209_199" x1="-59.7112" y1="116.682" x2="199.467" y2="-108.83" gradientUnits="userSpaceOnUse">
<stop stop-color="#FFE4A2"/>
<stop offset="0.3732" stop-color="#D8AB66"/>
<stop offset="0.6246" stop-color="#FFE4A2"/>
<stop offset="1" stop-color="#D8AB66"/>
</linearGradient>
<linearGradient id="paint6_linear_209_199" x1="-58.6947" y1="117.848" x2="200.481" y2="-107.662" gradientUnits="userSpaceOnUse">
<stop stop-color="#FFE4A2"/>
<stop offset="0.3732" stop-color="#D8AB66"/>
<stop offset="0.6246" stop-color="#FFE4A2"/>
<stop offset="1" stop-color="#D8AB66"/>
</linearGradient>
<linearGradient id="paint7_linear_209_199" x1="-57.58" y1="119.131" x2="201.599" y2="-106.381" gradientUnits="userSpaceOnUse">
<stop stop-color="#FFE4A2"/>
<stop offset="0.3732" stop-color="#D8AB66"/>
<stop offset="0.6246" stop-color="#FFE4A2"/>
<stop offset="1" stop-color="#D8AB66"/>
</linearGradient>
<linearGradient id="paint8_linear_209_199" x1="-56.1792" y1="120.741" x2="202.999" y2="-104.771" gradientUnits="userSpaceOnUse">
<stop stop-color="#FFE4A2"/>
<stop offset="0.3732" stop-color="#D8AB66"/>
<stop offset="0.6246" stop-color="#FFE4A2"/>
<stop offset="1" stop-color="#D8AB66"/>
</linearGradient>
<linearGradient id="paint9_linear_209_199" x1="-60.5257" y1="115.744" x2="198.652" y2="-109.766" gradientUnits="userSpaceOnUse">
<stop stop-color="#FFE4A2"/>
<stop offset="0.3732" stop-color="#D8AB66"/>
<stop offset="0.6246" stop-color="#FFE4A2"/>
<stop offset="1" stop-color="#D8AB66"/>
</linearGradient>
<linearGradient id="paint10_linear_209_199" x1="-61.0355" y1="115.159" x2="198.143" y2="-110.351" gradientUnits="userSpaceOnUse">
<stop stop-color="#FFE4A2"/>
<stop offset="0.3732" stop-color="#D8AB66"/>
<stop offset="0.6246" stop-color="#FFE4A2"/>
<stop offset="1" stop-color="#D8AB66"/>
</linearGradient>
<linearGradient id="paint11_linear_209_199" x1="-60.7259" y1="115.515" x2="198.452" y2="-109.996" gradientUnits="userSpaceOnUse">
<stop stop-color="#FFE4A2"/>
<stop offset="0.3732" stop-color="#D8AB66"/>
<stop offset="0.6246" stop-color="#FFE4A2"/>
<stop offset="1" stop-color="#D8AB66"/>
</linearGradient>
<linearGradient id="paint12_linear_209_199" x1="-56.9203" y1="119.888" x2="202.257" y2="-105.622" gradientUnits="userSpaceOnUse">
<stop stop-color="#FFE4A2"/>
<stop offset="0.3732" stop-color="#D8AB66"/>
<stop offset="0.6246" stop-color="#FFE4A2"/>
<stop offset="1" stop-color="#D8AB66"/>
</linearGradient>
</defs>
</svg>
