<svg width="22" height="23" viewBox="0 0 22 23" fill="none" xmlns="http://www.w3.org/2000/svg">
<path d="M2.75 8.75H19.25M6.41667 3.25V5.08333M15.5833 3.25V5.08333M10.9978 12.1526C10.3563 11.4384 9.28666 11.2463 8.48296 11.9003C7.67927 12.5543 7.56611 13.6478 8.19726 14.4212C8.55359 14.8579 9.40023 15.6234 10.07 16.2074C10.3876 16.4843 10.5463 16.6228 10.7385 16.6794C10.9023 16.7277 11.0933 16.7277 11.2571 16.6794C11.4493 16.6228 11.608 16.4843 11.9257 16.2074C12.5954 15.6234 13.442 14.8579 13.7983 14.4212C14.4295 13.6478 14.3302 12.5474 13.5127 11.9003C12.6951 11.2531 11.6393 11.4384 10.9978 12.1526ZM5.68333 19.75H16.3167C17.3434 19.75 17.8569 19.75 18.249 19.5502C18.5939 19.3744 18.8744 19.0939 19.0502 18.749C19.25 18.3569 19.25 17.8434 19.25 16.8167V8.01667C19.25 6.9899 19.25 6.47652 19.0502 6.08435C18.8744 5.73938 18.5939 5.45892 18.249 5.28316C17.8569 5.08333 17.3434 5.08333 16.3167 5.08333H5.68333C4.65657 5.08333 4.14319 5.08333 3.75102 5.28316C3.40605 5.45892 3.12559 5.73938 2.94982 6.08435C2.75 6.47652 2.75 6.9899 2.75 8.01667V16.8167C2.75 17.8434 2.75 18.3569 2.94982 18.749C3.12559 19.0939 3.40605 19.3744 3.75102 19.5502C4.14319 19.75 4.65657 19.75 5.68333 19.75Z" stroke="black" stroke-width="1.5" stroke-linecap="round" stroke-linejoin="round"/>
</svg>
