<svg width="20" height="20" viewBox="0 0 20 20" fill="none" xmlns="http://www.w3.org/2000/svg">
<g clip-path="url(#clip0_285_279)">
<path d="M14.6903 4.99976H1.97666C0.886683 4.99976 0 5.88644 0 6.9761V14.0231C0 15.1131 0.886683 15.9998 1.97666 15.9998H3.99998V19.3331C3.99998 19.4707 4.08465 19.5944 4.21297 19.6441C4.25228 19.6591 4.29295 19.6664 4.3333 19.6664C4.42563 19.6664 4.51562 19.6281 4.57996 19.5574L7.81431 15.9997H14.6903C15.7803 15.9997 16.6666 15.113 16.6666 14.0234V6.97642C16.6666 5.88644 15.7803 4.99976 14.6903 4.99976ZM12.219 10.0288C12.2127 10.0511 12.2073 10.0734 12.2006 10.0958C12.1833 10.1501 12.165 10.2037 12.1446 10.2577C12.1116 10.3458 12.0736 10.4338 12.0306 10.5214C12.0166 10.5497 12.0016 10.5778 11.9866 10.6058C11.933 10.7071 11.8733 10.8071 11.8053 10.9054C11.7956 10.9195 11.7849 10.9328 11.7749 10.9468C11.6999 11.0518 11.6186 11.1554 11.5259 11.2558C11.4969 11.2871 11.4599 11.3264 11.4189 11.3694C11.4073 11.3814 11.394 11.3955 11.3816 11.4084C11.35 11.4418 11.3159 11.4768 11.2786 11.5151C11.2609 11.5335 11.2429 11.5521 11.2246 11.5711C11.1869 11.6098 11.1476 11.6501 11.1062 11.6924C11.0873 11.7118 11.0689 11.7304 11.0492 11.7508C10.9996 11.8014 10.9473 11.8544 10.8933 11.9094C10.8633 11.9398 10.8326 11.9707 10.8016 12.0024C10.7519 12.0528 10.7016 12.1038 10.6496 12.1564C10.613 12.1935 10.5753 12.2311 10.5379 12.2691C10.503 12.3041 10.4683 12.3394 10.4326 12.3751C10.3926 12.4155 10.3523 12.4558 10.3116 12.4968C10.2769 12.5318 10.2423 12.5665 10.2076 12.6015C10.1639 12.6455 10.1209 12.6888 10.0769 12.7325C10.0539 12.7558 10.031 12.7788 10.0076 12.8022C9.83294 12.9775 9.66162 13.1492 9.49895 13.3115C9.48096 13.3295 9.4623 13.3481 9.44427 13.3658C9.38728 13.4232 9.33259 13.4775 9.27894 13.5311L9.26762 13.5424C9.21194 13.5981 9.15829 13.6518 9.10694 13.7025C8.99328 13.8161 8.89026 13.9188 8.80293 14.0058L8.33392 14.4725L7.86391 14.0071C7.28957 13.4392 5.83292 11.9681 5.27157 11.3925C5.26057 11.3812 5.24925 11.3695 5.23889 11.3588C5.23754 11.3575 5.23623 11.3561 5.23487 11.3548C5.2002 11.3191 5.1682 11.2861 5.14389 11.2611C5.14322 11.2604 5.14254 11.2594 5.14191 11.2584C5.04592 11.1594 4.96157 11.0561 4.88456 10.9508C4.88123 10.9461 4.87757 10.9418 4.87424 10.9374C4.62623 10.5944 4.47357 10.2258 4.39756 9.86077C4.39354 9.84278 4.39057 9.82511 4.38687 9.80712C4.36721 9.70279 4.3532 9.59945 4.34553 9.49679C4.34251 9.45811 4.34088 9.41979 4.33922 9.38147C4.33656 9.29314 4.33723 9.20613 4.34255 9.12047C4.34521 9.07678 4.34855 9.03346 4.35355 8.98981C4.36388 8.89648 4.37921 8.80614 4.39823 8.7175C4.40455 8.68982 4.40991 8.66218 4.4169 8.6345C4.44724 8.51385 4.48524 8.39848 4.53091 8.29117C4.83091 7.58383 5.43058 7.12586 6.16957 7.02217C6.27489 7.00751 6.38359 6.99985 6.49423 6.99985C7.33091 6.99985 7.95124 7.45818 8.33257 7.9855C8.66588 7.52383 9.18256 7.11549 9.86722 7.0205C9.96487 7.00715 10.0662 6.99985 10.1705 6.99985C10.2812 6.99985 10.3889 7.00719 10.4942 7.02153C11.2299 7.1222 11.8285 7.56751 12.1295 8.25587C12.1748 8.35853 12.2125 8.46921 12.2432 8.58553C12.2549 8.62719 12.2629 8.6692 12.2722 8.71118C12.2818 8.75753 12.2899 8.80487 12.2968 8.85252C12.3593 9.23977 12.332 9.63976 12.219 10.0288Z" fill="url(#paint0_linear_285_279)"/>
<path d="M18.0237 0.333252H5.31003C4.22002 0.333252 3.33337 1.21994 3.33337 2.30991V4.33324H14.6904C16.1477 4.33324 17.3334 5.51888 17.3334 6.97657V11.3332H18.0237C19.1137 11.3332 20.0001 10.4465 20.0001 9.35656V2.30991C20 1.2199 19.1137 0.333252 18.0237 0.333252Z" fill="url(#paint1_linear_285_279)"/>
</g>
<defs>
<linearGradient id="paint0_linear_285_279" x1="0" y1="12.3331" x2="16.6666" y2="12.3331" gradientUnits="userSpaceOnUse">
<stop stop-color="#DFB571"/>
<stop offset="1" stop-color="#E8AC4D"/>
</linearGradient>
<linearGradient id="paint1_linear_285_279" x1="3.33337" y1="5.83324" x2="20.0001" y2="5.83324" gradientUnits="userSpaceOnUse">
<stop stop-color="#DFB571"/>
<stop offset="1" stop-color="#E8AC4D"/>
</linearGradient>
<clipPath id="clip0_285_279">
<rect width="20" height="20" fill="white"/>
</clipPath>
</defs>
</svg>
