<svg width="24" height="25" viewBox="0 0 24 25" fill="none" xmlns="http://www.w3.org/2000/svg">
<path fill-rule="evenodd" clip-rule="evenodd" d="M0 20.9407V4.05933H24V20.9407H0ZM15.483 10.9394L21.1576 5.68979H2.84236L8.51705 10.9394C9.00398 10.299 9.75623 9.88696 10.5996 9.88696C11.0989 9.88696 11.5834 10.034 12 10.3034C12.4166 10.0341 12.9011 9.88696 13.4004 9.88696C14.2438 9.88696 14.9961 10.299 15.483 10.9394ZM12.0206 15.4761H11.9794C11.9863 15.481 11.9932 15.4859 12 15.4908C12.0068 15.4859 12.0137 15.481 12.0206 15.4761ZM7.94484 12.5906L1.5652 6.68887V18.413L7.96734 12.9959C7.95211 12.8834 7.9433 12.7695 7.9433 12.654C7.9433 12.6404 7.94374 12.6269 7.94418 12.6135C7.94443 12.6059 7.94467 12.5983 7.94484 12.5906ZM8.62973 14.536L2.98734 19.3103H21.0128L15.3704 14.536C14.8916 15.2039 14.2316 15.7911 13.62 16.2838C13.1274 16.6806 12.4545 17.1363 12.4261 17.1555L12 17.4436L11.574 17.1555C11.5455 17.1363 10.8726 16.6806 10.38 16.2838C9.76847 15.7911 9.10852 15.2039 8.62973 14.536ZM16.0327 12.9959L22.4348 18.4131V6.68882L16.0552 12.5906C16.0553 12.5982 16.0556 12.6058 16.0558 12.6134C16.0563 12.6269 16.0567 12.6404 16.0567 12.6539C16.0567 12.7694 16.0479 12.8833 16.0327 12.9959Z" fill="url(#paint0_linear_285_250)"/>
<defs>
<linearGradient id="paint0_linear_285_250" x1="0" y1="12.5" x2="24" y2="12.5" gradientUnits="userSpaceOnUse">
<stop stop-color="#DFB571"/>
<stop offset="1" stop-color="#E8AC4D"/>
</linearGradient>
</defs>
</svg>
