<svg width="17" height="17" viewBox="0 0 17 17" fill="none" xmlns="http://www.w3.org/2000/svg">
<g clip-path="url(#clip0_275_353)">
<path fill-rule="evenodd" clip-rule="evenodd" d="M8.5 12.75C10.8472 12.75 12.75 10.8472 12.75 8.5C12.75 6.15279 10.8472 4.25 8.5 4.25C6.15279 4.25 4.25 6.15279 4.25 8.5C4.25 10.8472 6.15279 12.75 8.5 12.75ZM8.5 11.3333C10.0648 11.3333 11.3333 10.0648 11.3333 8.5C11.3333 6.93519 10.0648 5.66667 8.5 5.66667C6.93519 5.66667 5.66667 6.93519 5.66667 8.5C5.66667 10.0648 6.93519 11.3333 8.5 11.3333Z" fill="#0F0F0F"/>
<path d="M12.75 3.54175C12.3587 3.54175 12.0416 3.85888 12.0416 4.25008C12.0416 4.64128 12.3587 4.95841 12.75 4.95841C13.1412 4.95841 13.4583 4.64128 13.4583 4.25008C13.4583 3.85888 13.1412 3.54175 12.75 3.54175Z" fill="#0F0F0F"/>
<path fill-rule="evenodd" clip-rule="evenodd" d="M1.1716 3.02892C0.708374 3.93804 0.708374 5.12815 0.708374 7.50837V9.49171C0.708374 11.8719 0.708374 13.0621 1.1716 13.9711C1.57906 14.7708 2.22922 15.421 3.02892 15.8285C3.93804 16.2917 5.12815 16.2917 7.50837 16.2917H9.49171C11.8719 16.2917 13.0621 16.2917 13.9711 15.8285C14.7708 15.421 15.421 14.7708 15.8285 13.9711C16.2917 13.0621 16.2917 11.8719 16.2917 9.49171V7.50837C16.2917 5.12815 16.2917 3.93804 15.8285 3.02892C15.421 2.22922 14.7708 1.57906 13.9711 1.1716C13.0621 0.708374 11.8719 0.708374 9.49171 0.708374H7.50837C5.12815 0.708374 3.93804 0.708374 3.02892 1.1716C2.22922 1.57906 1.57906 2.22922 1.1716 3.02892ZM9.49171 2.12504H7.50837C6.29489 2.12504 5.46997 2.12615 4.83235 2.17824C4.21125 2.22898 3.89364 2.32096 3.67207 2.43385C3.13894 2.7055 2.7055 3.13894 2.43385 3.67207C2.32096 3.89364 2.22898 4.21125 2.17824 4.83235C2.12615 5.46997 2.12504 6.29489 2.12504 7.50837V9.49171C2.12504 10.7052 2.12615 11.5301 2.17824 12.1677C2.22898 12.7889 2.32096 13.1065 2.43385 13.328C2.7055 13.8611 3.13894 14.2946 3.67207 14.5662C3.89364 14.6791 4.21125 14.7711 4.83235 14.8218C5.46997 14.8739 6.29489 14.875 7.50837 14.875H9.49171C10.7052 14.875 11.5301 14.8739 12.1677 14.8218C12.7889 14.7711 13.1065 14.6791 13.328 14.5662C13.8611 14.2946 14.2946 13.8611 14.5662 13.328C14.6791 13.1065 14.7711 12.7889 14.8218 12.1677C14.8739 11.5301 14.875 10.7052 14.875 9.49171V7.50837C14.875 6.29489 14.8739 5.46997 14.8218 4.83235C14.7711 4.21125 14.6791 3.89364 14.5662 3.67207C14.2946 3.13894 13.8611 2.7055 13.328 2.43385C13.1065 2.32096 12.7889 2.22898 12.1677 2.17824C11.5301 2.12615 10.7052 2.12504 9.49171 2.12504Z" fill="#0F0F0F"/>
</g>
<defs>
<clipPath id="clip0_275_353">
<rect width="17" height="17" fill="white"/>
</clipPath>
</defs>
</svg>
