<svg width="26" height="20" viewBox="0 0 26 20" fill="none" xmlns="http://www.w3.org/2000/svg">
<path d="M25.4684 9.38774C25.2984 7.30311 23.6144 5.65092 21.4501 5.47242C19.3081 5.29605 17.9778 6.41699 17.3711 7.10761C17.1639 7.34349 16.8037 7.34349 16.5966 7.10761C15.9899 6.41699 14.6596 5.29605 12.5176 5.47242C10.3533 5.65092 8.66925 7.30311 8.49925 9.38774C8.30694 11.7529 9.91237 13.7663 11.4519 15.2878C13.0032 16.821 14.7967 18.1799 16.7347 19.2052C16.8898 19.2871 17.0779 19.2871 17.233 19.2052C19.171 18.1799 20.9645 16.821 22.5157 15.2878C24.0553 13.7663 25.6607 11.7529 25.4684 9.38774Z" fill="url(#paint0_linear_285_265)"/>
<path d="M7.44102 9.30171C7.65352 6.69115 9.75196 4.63521 12.4305 4.41421C12.6133 4.39934 12.7918 4.3919 12.965 4.3919C12.9735 4.3919 12.982 4.3919 12.9905 4.3919C13.0032 4.2134 13.0032 4.03278 12.9883 3.84896C12.8608 2.28496 11.5986 1.04609 9.97508 0.912213C8.36858 0.779401 7.37089 1.6209 6.91614 2.13834C6.76102 2.31578 6.49114 2.31578 6.33496 2.13834C5.88021 1.6209 4.88252 0.779401 3.27496 0.912213C1.65252 1.04609 0.389208 2.28496 0.261708 3.84896C0.117208 5.62228 1.32208 7.13315 2.47596 8.27321C3.63939 9.42284 4.98452 10.4428 6.43802 11.2121C6.55383 11.2737 6.69514 11.2737 6.81202 11.2121C7.04896 11.0867 7.28271 10.9539 7.51327 10.8158C7.42827 10.3313 7.39852 9.82553 7.44102 9.30171Z" fill="url(#paint1_linear_285_265)"/>
<defs>
<linearGradient id="paint0_linear_285_265" x1="8.48352" y1="12.3602" x2="25.4842" y2="12.3602" gradientUnits="userSpaceOnUse">
<stop stop-color="#DFB571"/>
<stop offset="1" stop-color="#E8AC4D"/>
</linearGradient>
<linearGradient id="paint1_linear_285_265" x1="0.249878" y1="6.07825" x2="12.9998" y2="6.07825" gradientUnits="userSpaceOnUse">
<stop stop-color="#DFB571"/>
<stop offset="1" stop-color="#E8AC4D"/>
</linearGradient>
</defs>
</svg>
