<svg width="23" height="23" viewBox="0 0 23 23" fill="none" xmlns="http://www.w3.org/2000/svg">
<path d="M11.5001 0C6.66382 0 2.72925 3.93453 2.72925 8.77077C2.72925 11.316 3.48834 13.9498 4.98545 16.5989C6.28773 18.9032 7.9157 20.7875 9.05205 21.9624C9.69919 22.6316 10.5686 23 11.5 23C12.4315 23 13.3008 22.6316 13.948 21.9624C15.0843 20.7875 16.7123 18.9032 18.0146 16.5988C19.5117 13.9497 20.2708 11.316 20.2708 8.77073C20.2708 3.93453 16.3363 0 11.5001 0ZM11.5001 12.146C9.63895 12.146 8.12481 10.6319 8.12481 8.77077C8.12481 6.90966 9.63891 5.39552 11.5001 5.39552C13.3612 5.39552 14.8753 6.90966 14.8753 8.77077C14.8753 10.6319 13.3612 12.146 11.5001 12.146Z" fill="url(#paint0_linear_285_273)"/>
<defs>
<linearGradient id="paint0_linear_285_273" x1="2.72925" y1="11.5" x2="20.2708" y2="11.5" gradientUnits="userSpaceOnUse">
<stop stop-color="#DFB571"/>
<stop offset="1" stop-color="#E8AC4D"/>
</linearGradient>
</defs>
</svg>
